<?xml version="1.0" encoding="utf-8"?>
<!-- Generator: Adobe Illustrator 23.0.3, SVG Export Plug-In . SVG Version: 6.00 Build 0)  -->
<svg version="1.1" id="Layer_1" xmlns="http://www.w3.org/2000/svg" xmlns:xlink="http://www.w3.org/1999/xlink" x="0px" y="0px"
	 viewBox="0 0 1920 1080" style="enable-background:new 0 0 1920 1080;" xml:space="preserve">
<g>
	<polygon points="1891.76,916.33 1891.76,1052.83 1755.26,1052.83 1755.26,1025.53 1864.46,1025.53 1864.46,998.23 1755.26,998.23 
		1755.26,970.93 1864.46,970.93 1864.46,943.63 1755.26,943.63 1755.26,916.33 	"/>
	<polygon points="1606.17,1052.83 1639.84,1052.83 1674.42,1000.97 1709,1052.83 1742.67,1052.83 1689.48,973.05 1689.48,916.33 
		1659.36,916.33 1659.36,973.05 	"/>
	<path d="M202.07,916.33h-29.43l54.6,136.5h27.3l54.6-136.5h-29.43l-10.92,27.3h-55.81L202.07,916.33z M257.88,970.93l-16.99,42.46
		l-16.99-42.46H257.88z"/>
	<polygon points="163.67,1052.83 163.67,916.33 136.37,916.33 136.37,1025.53 109.07,1025.53 109.07,916.33 81.77,916.33 
		81.77,1025.53 54.47,1025.53 54.47,916.33 27.17,916.33 27.17,1052.83 	"/>
	<path d="M27.17,456.79"/>
	<polygon points="27.17,767.24 27.17,800.91 79.03,835.49 27.17,870.07 27.17,903.74 106.95,850.55 163.67,850.55 163.67,820.43 
		106.95,820.43 	"/>
	<path d="M163.67,202.07v-29.43l-136.5,54.6v27.3l136.5,54.6v-29.43l-27.3-10.92v-55.81L163.67,202.07z M109.07,257.88L66.6,240.9
		l42.46-16.99V257.88z"/>
	<polygon points="27.17,163.67 163.67,163.67 163.67,136.37 54.47,136.37 54.47,109.07 163.67,109.07 163.67,81.77 54.47,81.77 
		54.47,54.47 163.67,54.47 163.67,27.17 27.17,27.17 	"/>
	<polygon points="163.67,320.28 136.37,320.28 136.37,429.49 109.07,429.49 109.07,320.28 81.77,320.28 81.77,429.49 54.47,429.49 
		54.47,320.28 27.17,320.28 27.17,456.79 163.67,456.79 	"/>
	<path d="M163.67,605.19v-95.55h0c0-22.62-18.33-40.95-40.95-40.95c-12.25,0-23.23,5.38-30.73,13.9
		c-6.72-4.83-14.96-7.69-23.87-7.69c-22.22,0-40.3,17.71-40.92,39.78h-0.03v90.51H163.67z M54.47,515.85
		c0-7.54,6.11-13.65,13.65-13.65s13.65,6.11,13.65,13.65v62.04h-27.3V515.85z M136.37,577.89h-27.3v-68.25h0
		c0-7.54,6.11-13.65,13.65-13.65s13.65,6.11,13.65,13.65V577.89z"/>
	<polygon points="27.17,620.27 54.47,620.27 54.47,729.48 81.77,729.48 81.77,620.27 109.07,620.27 109.07,729.48 136.37,729.48 
		136.37,620.27 163.67,620.27 163.67,756.78 27.17,756.78 	"/>
	<path d="M1191,27.17"/>
	<polygon points="312.76,27.17 279.09,27.17 244.51,79.03 209.93,27.17 176.26,27.17 229.45,106.95 229.45,163.67 259.57,163.67 
		259.57,106.95 	"/>
	<path d="M1716.86,163.67h29.43l-54.6-136.5h-27.3l-54.6,136.5h29.43l10.92-27.3h55.81L1716.86,163.67z M1661.05,109.07l16.99-42.46
		l16.99,42.46H1661.05z"/>
	<polygon points="1755.26,27.17 1755.26,163.67 1782.56,163.67 1782.56,54.47 1809.86,54.47 1809.86,163.67 1837.16,163.67 
		1837.16,54.47 1864.46,54.47 1864.46,163.67 1891.76,163.67 1891.76,27.17 	"/>
	<polygon points="1598.64,163.67 1598.64,136.37 1218.3,136.37 1218.3,109.07 1598.64,109.07 1598.64,81.77 1218.3,81.77 
		1218.3,54.47 1598.64,54.47 1598.64,27.17 1191,27.17 1191,163.67 	"/>
	<path d="M748.15,163.67h390v0c22.62,0,40.95-18.33,40.95-40.95c0-12.25-5.38-23.23-13.9-30.73c4.83-6.72,7.69-14.96,7.69-23.87
		c0-22.22-17.71-40.3-39.78-40.92v-0.03H748.15V163.67z M1131.94,54.47c7.54,0,13.65,6.11,13.65,13.65s-6.11,13.65-13.65,13.65
		H767.91v-27.3H1131.94z M767.91,136.37v-27.3h370.24v0c7.54,0,13.65,6.11,13.65,13.65s-6.11,13.65-13.65,13.65H767.91z"/>
	<polygon points="733.06,27.17 733.06,54.47 350.52,54.47 350.52,81.77 733.06,81.77 733.06,109.07 350.52,109.07 350.52,136.37 
		733.06,136.37 733.06,163.67 323.22,163.67 323.22,27.17 	"/>
	<path d="M1891.76,623.21"/>
	<polygon points="1891.76,312.76 1891.76,279.09 1839.9,244.51 1891.76,209.93 1891.76,176.26 1811.97,229.45 1755.26,229.45 
		1755.26,259.57 1811.97,259.57 	"/>
	<path d="M1755.26,877.93v29.43l136.5-54.6v-27.3l-136.5-54.6v29.43l27.3,10.92v55.81L1755.26,877.93z M1809.86,822.12l42.46,16.99
		l-42.46,16.99V822.12z"/>
	<polygon points="1755.26,759.72 1782.56,759.72 1782.56,650.51 1809.86,650.51 1809.86,759.72 1837.16,759.72 1837.16,650.51 
		1864.46,650.51 1864.46,759.72 1891.76,759.72 1891.76,623.21 1755.26,623.21 	"/>
	<path d="M1755.26,474.81v95.55h0c0,22.62,18.33,40.95,40.95,40.95c12.25,0,23.23-5.38,30.73-13.9c6.72,4.83,14.96,7.69,23.87,7.69
		c22.22,0,40.3-17.71,40.92-39.78h0.03v-90.51H1755.26z M1864.46,564.15c0,7.54-6.11,13.65-13.65,13.65
		c-7.54,0-13.65-6.11-13.65-13.65v-62.04h27.3V564.15z M1782.56,502.11h27.3v68.25l0,0c0,7.54-6.11,13.65-13.65,13.65
		c-7.54,0-13.65-6.11-13.65-13.65V502.11z"/>
	<polygon points="1891.76,459.73 1864.46,459.73 1864.46,350.52 1837.16,350.52 1837.16,459.73 1809.86,459.73 1809.86,350.52 
		1782.56,350.52 1782.56,459.73 1755.26,459.73 1755.26,323.22 1891.76,323.22 	"/>
	<path d="M728.87,1052.83"/>
	<polygon points="321.22,916.33 321.22,943.63 701.57,943.63 701.57,970.93 321.22,970.93 321.22,998.23 701.57,998.23 
		701.57,1025.53 321.22,1025.53 321.22,1052.83 728.87,1052.83 728.87,916.33 	"/>
	<path d="M1171.72,916.33h-390v0c-22.62,0-40.95,18.33-40.95,40.95c0,12.25,5.38,23.23,13.9,30.73c-4.83,6.72-7.69,14.96-7.69,23.87
		c0,22.22,17.71,40.3,39.78,40.92v0.03h384.96V916.33z M787.93,1025.53c-7.54,0-13.65-6.11-13.65-13.65s6.11-13.65,13.65-13.65
		h364.03v27.3H787.93z M1151.96,943.63v27.3H781.72v0c-7.54,0-13.65-6.11-13.65-13.65s6.11-13.65,13.65-13.65H1151.96z"/>
	<polygon points="1186.8,1052.83 1186.8,1025.53 1569.34,1025.53 1569.34,998.23 1186.8,998.23 1186.8,970.93 1569.34,970.93 
		1569.34,943.63 1186.8,943.63 1186.8,916.33 1596.64,916.33 1596.64,1052.83 	"/>
</g>
</svg>
