<?xml version="1.0" encoding="utf-8"?>
<!-- Generator: Adobe Illustrator 23.0.3, SVG Export Plug-In . SVG Version: 6.00 Build 0)  -->
<svg version="1.1" id="Layer_1" xmlns="http://www.w3.org/2000/svg" xmlns:xlink="http://www.w3.org/1999/xlink" x="0px" y="0px"
	 viewBox="0 0 144 252" style="enable-background:new 0 0 144 252;" xml:space="preserve">
<g>
	<polygon points="21.83,248.34 3.64,248.34 3.64,230.15 7.28,230.15 7.28,244.7 10.91,244.7 10.91,230.15 14.55,230.15 14.55,244.7 
		18.19,244.7 18.19,230.15 21.83,230.15 	"/>
	<path d="M3.64,96.73"/>
	<polygon points="3.64,210.28 3.64,214.77 10.55,219.38 3.64,223.99 3.64,228.47 14.27,221.39 21.83,221.39 21.83,217.37 
		14.27,217.37 	"/>
	<path d="M21.83,26.95v-3.92L3.64,30.3v3.64l18.19,7.28v-3.92l-3.64-1.46V28.4L21.83,26.95z M14.55,34.38l-5.66-2.26l5.66-2.26
		V34.38z"/>
	<polygon points="3.64,21.83 21.83,21.83 21.83,18.19 7.28,18.19 7.28,14.55 21.83,14.55 21.83,10.91 7.28,10.91 7.28,7.28 
		21.83,7.28 21.83,3.64 3.64,3.64 	"/>
	<polygon points="21.83,42.7 18.19,42.7 18.19,93.09 14.55,93.09 14.55,42.7 10.91,42.7 10.91,93.09 7.28,93.09 7.28,42.7 
		3.64,42.7 3.64,96.73 21.83,96.73 	"/>
	<path d="M21.83,153.1v-49.33h0c0-3.01-2.44-5.46-5.46-5.46c-1.63,0-3.1,0.72-4.1,1.85c-0.9-0.64-1.99-1.02-3.18-1.02
		c-2.96,0-5.37,2.36-5.45,5.3h0v48.66H21.83z M7.28,104.6c0-1,0.81-1.82,1.82-1.82s1.82,0.81,1.82,1.82v44.87H7.28V104.6z
		 M18.19,149.46h-3.64v-45.69h0c0-1,0.81-1.82,1.82-1.82c1,0,1.82,0.81,1.82,1.82V149.46z"/>
	<polygon points="3.64,155.11 7.28,155.11 7.28,205.25 10.91,205.25 10.91,155.11 14.55,155.11 14.55,205.25 18.19,205.25 
		18.19,155.11 21.83,155.11 21.83,208.89 3.64,208.89 	"/>
	<path d="M83.07,3.64"/>
	<polygon points="41.7,3.64 37.21,3.64 32.6,10.55 27.99,3.64 23.51,3.64 30.59,14.27 30.59,21.83 34.61,21.83 34.61,14.27 	"/>
	<path d="M117.01,21.83h3.92l-7.28-18.19h-3.64l-7.28,18.19h3.92l1.46-3.64h7.44L117.01,21.83z M109.57,14.55l2.26-5.66l2.26,5.66
		H109.57z"/>
	<polygon points="122.13,3.64 122.13,21.83 125.77,21.83 125.77,7.28 129.4,7.28 129.4,21.83 133.04,21.83 133.04,7.28 136.68,7.28 
		136.68,21.83 140.32,21.83 140.32,3.64 	"/>
	<polygon points="101.26,21.83 101.26,18.19 86.71,18.19 86.71,14.55 101.26,14.55 101.26,10.91 86.71,10.91 86.71,7.28 
		101.26,7.28 101.26,3.64 83.07,3.64 83.07,21.83 	"/>
	<path d="M63.29,21.83h12.73v0c3.01,0,5.46-2.44,5.46-5.46c0-1.63-0.72-3.1-1.85-4.1c0.64-0.9,1.02-1.99,1.02-3.18
		c0-2.96-2.36-5.37-5.3-5.45v0H63.29V21.83z M75.2,7.28c1,0,1.82,0.81,1.82,1.82s-0.81,1.82-1.82,1.82h-8.27V7.28H75.2z
		 M66.93,18.19v-3.64h9.1v0c1,0,1.82,0.81,1.82,1.82c0,1-0.81,1.82-1.82,1.82H66.93z"/>
	<polygon points="61.28,3.64 61.28,7.28 46.73,7.28 46.73,10.91 61.28,10.91 61.28,14.55 46.73,14.55 46.73,18.19 61.28,18.19 
		61.28,21.83 43.09,21.83 43.09,3.64 	"/>
	<polygon points="140.32,41.7 140.32,37.21 133.41,32.6 140.32,27.99 140.32,23.51 129.69,30.59 122.13,30.59 122.13,34.61 
		129.69,34.61 	"/>
	<path d="M122.13,225.03v3.92l18.19-7.28v-3.64l-18.19-7.28v3.92l3.64,1.46v7.44L122.13,225.03z M129.4,217.6l5.66,2.26l-5.66,2.26
		V217.6z"/>
	<polygon points="140.32,230.15 122.13,230.15 122.13,233.79 136.68,233.79 136.68,237.43 122.13,237.43 122.13,241.07 
		136.68,241.07 136.68,244.7 122.13,244.7 122.13,248.34 140.32,248.34 	"/>
	<path d="M60.89,248.34"/>
	<polygon points="102.26,248.34 106.75,248.34 111.36,241.43 115.96,248.34 120.45,248.34 113.36,237.71 113.36,230.15 
		109.35,230.15 109.35,237.71 	"/>
	<path d="M26.95,230.15h-3.92l7.28,18.19h3.64l7.28-18.19h-3.92l-1.46,3.64H28.4L26.95,230.15z M34.38,237.43l-2.26,5.66l-2.26-5.66
		H34.38z"/>
	<polygon points="42.7,230.15 42.7,233.79 57.25,233.79 57.25,237.43 42.7,237.43 42.7,241.07 57.25,241.07 57.25,244.7 42.7,244.7 
		42.7,248.34 60.89,248.34 60.89,230.15 	"/>
	<path d="M80.67,230.15H67.93v0c-3.01,0-5.46,2.44-5.46,5.46c0,1.63,0.72,3.1,1.85,4.1c-0.64,0.9-1.02,1.99-1.02,3.18
		c0,2.96,2.36,5.37,5.3,5.45v0h12.06V230.15z M68.76,244.7c-1,0-1.82-0.81-1.82-1.82s0.81-1.82,1.82-1.82h8.27v3.64H68.76z
		 M77.03,233.79v3.64h-9.1l0,0c-1,0-1.82-0.81-1.82-1.82s0.81-1.82,1.82-1.82H77.03z"/>
	<polygon points="82.68,248.34 82.68,244.7 97.23,244.7 97.23,241.07 82.68,241.07 82.68,237.43 97.23,237.43 97.23,233.79 
		82.68,233.79 82.68,230.15 100.87,230.15 100.87,248.34 	"/>
	<path d="M140.32,154.86"/>
	<polygon points="122.13,208.89 125.77,208.89 125.77,158.5 129.4,158.5 129.4,208.89 133.04,208.89 133.04,158.5 136.68,158.5 
		136.68,208.89 140.32,208.89 140.32,154.86 122.13,154.86 	"/>
	<path d="M122.13,98.49v49.33h0c0,3.01,2.44,5.46,5.46,5.46c1.63,0,3.1-0.72,4.1-1.85c0.9,0.64,1.99,1.02,3.18,1.02
		c2.96,0,5.37-2.36,5.45-5.3h0V98.49H122.13z M136.68,146.99c0,1-0.81,1.82-1.82,1.82c-1,0-1.82-0.81-1.82-1.82v-44.87h3.64V146.99z
		 M125.77,102.12h3.64v45.69l0,0c0,1-0.81,1.82-1.82,1.82s-1.82-0.81-1.82-1.82V102.12z"/>
	<polygon points="140.32,96.48 136.68,96.48 136.68,46.34 133.04,46.34 133.04,96.48 129.4,96.48 129.4,46.34 125.77,46.34 
		125.77,96.48 122.13,96.48 122.13,42.7 140.32,42.7 	"/>
	<path d="M-278-38.92"/>
</g>
</svg>
