<svg id="Layer_1" data-name="Layer 1" xmlns="http://www.w3.org/2000/svg" viewBox="0 0 754.83 1186.83"><title>eyebeam logo tabloid vertical</title><polygon points="654.37 0 754.83 0 754.83 100.46 734.73 100.46 734.73 20.09 714.64 20.09 714.64 100.46 694.55 100.46 694.55 20.09 674.46 20.09 674.46 100.46 654.37 100.46 654.37 0"/><polygon points="754.83 210.18 754.83 185.4 716.66 159.95 754.83 134.5 754.83 109.72 696.11 148.87 654.37 148.87 654.37 171.03 696.11 171.03 754.83 210.18"/><path d="M673,1076.7v21.65l100.45-40.18v-20.09L673,997.89v21.66l20.09,8v41.08Zm40.18-41.08,31.25,12.5-31.25,12.5Z" transform="translate(-18.59 -18.59)"/><polygon points="754.83 1086.37 654.37 1086.37 654.37 1106.46 734.73 1106.46 734.73 1126.55 654.37 1126.55 654.37 1146.64 734.73 1146.64 734.73 1166.73 654.37 1166.73 654.37 1186.83 754.83 1186.83 754.83 1086.37"/><path d="M334.76,1205.41" transform="translate(-18.59 -18.59)"/><polygon points="544.65 1186.83 569.43 1186.83 594.88 1148.66 620.32 1186.83 645.1 1186.83 605.96 1128.11 605.96 1086.37 583.79 1086.37 583.79 1128.11 544.65 1186.83"/><path d="M147.3,1105H125.65l40.18,100.45h20.09L226.11,1105H204.45l-8,20.09H155.34Zm41.08,40.18-12.5,31.25-12.5-31.25Z" transform="translate(-18.59 -18.59)"/><polygon points="100.46 1186.83 100.46 1086.37 80.37 1086.37 80.37 1166.73 60.27 1166.73 60.27 1086.37 40.18 1086.37 40.18 1166.73 20.09 1166.73 20.09 1086.37 0 1086.37 0 1186.83 100.46 1186.83"/><polygon points="215.72 1086.37 215.72 1106.46 296.08 1106.46 296.08 1126.55 215.72 1126.55 215.72 1146.64 296.08 1146.64 296.08 1166.73 215.72 1166.73 215.72 1186.83 316.17 1186.83 316.17 1086.37 215.72 1086.37"/><path d="M444,1105H373.65a30.13,30.13,0,0,0-19.9,52.75,30.12,30.12,0,0,0,23.62,47.68v0H444Zm-65.74,80.36a10,10,0,1,1,0-20.09h45.65v20.09Zm45.65-60.27v20.09H373.65a10,10,0,0,1,0-20.09Z" transform="translate(-18.59 -18.59)"/><polygon points="436.49 1186.83 436.49 1166.73 516.86 1166.73 516.86 1146.64 436.49 1146.64 436.49 1126.55 516.86 1126.55 516.86 1106.46 436.49 1106.46 436.49 1086.37 536.95 1086.37 536.95 1186.83 436.49 1186.83"/><path d="M18.59,482" transform="translate(-18.59 -18.59)"/><polygon points="0 976.65 0 1001.43 38.17 1026.88 0 1052.32 0 1077.1 58.72 1037.96 100.46 1037.96 100.46 1015.79 58.72 1015.79 0 976.65"/><path d="M119,147.3V125.65L18.59,165.83v20.09L119,226.11V204.45l-20.09-8V155.34ZM78.86,188.38l-31.25-12.5,31.25-12.5Z" transform="translate(-18.59 -18.59)"/><polygon points="0 100.46 100.46 100.46 100.46 80.37 20.09 80.37 20.09 60.27 100.46 60.27 100.46 40.18 20.09 40.18 20.09 20.09 100.46 20.09 100.46 0 0 0 0 100.46"/><polygon points="100.46 216.72 80.37 216.72 80.37 443.32 60.27 443.32 60.27 216.72 40.18 216.72 40.18 443.32 20.09 443.32 20.09 216.72 0 216.72 0 463.41 100.46 463.41 100.46 216.72"/><path d="M119,732.76V520.89h0A30.13,30.13,0,0,0,66.29,501a30.12,30.12,0,0,0-47.68,23.62h0V732.76ZM38.68,525.47a10,10,0,1,1,20.09,0v187.2H38.68ZM99,712.67H78.86V520.89h0a10,10,0,0,1,20.09,0Z" transform="translate(-18.59 -18.59)"/><polygon points="0 725.28 20.09 725.28 20.09 949.86 40.18 949.86 40.18 725.28 60.27 725.28 60.27 949.86 80.37 949.86 80.37 725.28 100.46 725.28 100.46 969.95 0 969.95 0 725.28"/><path d="M457.24,18.59" transform="translate(-18.59 -18.59)"/><polygon points="210.18 0 185.4 0 159.95 38.17 134.5 0 109.72 0 148.87 58.72 148.87 100.46 171.03 100.46 171.03 58.72 210.18 0"/><path d="M644.7,119h21.65L626.17,18.59H606.08L565.89,119h21.66l8-20.09h41.08ZM603.62,78.86l12.5-31.25,12.5,31.25Z" transform="translate(-18.59 -18.59)"/><polygon points="539.11 100.46 539.11 80.37 458.74 80.37 458.74 60.27 539.11 60.27 539.11 40.18 458.74 40.18 458.74 20.09 539.11 20.09 539.11 0 438.65 0 438.65 100.46 539.11 100.46"/><path d="M348,119h70.32a30.13,30.13,0,0,0,19.9-52.75,30.12,30.12,0,0,0-23.62-47.68v0H348Zm65.74-80.36a10,10,0,1,1,0,20.09H368.12V38.68ZM368.12,99V78.86h50.23a10,10,0,0,1,0,20.09Z" transform="translate(-18.59 -18.59)"/><polygon points="318.34 0 318.34 20.09 237.97 20.09 237.97 40.18 318.34 40.18 318.34 60.27 237.97 60.27 237.97 80.37 318.34 80.37 318.34 100.46 217.88 100.46 217.88 0 318.34 0"/><path d="M773.41,742.84" transform="translate(-18.59 -18.59)"/><polygon points="654.37 970.95 674.46 970.95 674.46 744.34 694.55 744.34 694.55 970.95 714.64 970.95 714.64 744.34 734.73 744.34 734.73 970.95 754.83 970.95 754.83 724.25 654.37 724.25 654.37 970.95"/><path d="M673,492.07V703.94h0a30.13,30.13,0,0,0,52.75,19.91,30.12,30.12,0,0,0,47.68-23.62h0V492.07Zm80.36,207.3a10,10,0,0,1-20.09,0V512.16h20.09ZM693.05,512.16h20.09V703.94h0a10,10,0,1,1-20.09,0Z" transform="translate(-18.59 -18.59)"/><polygon points="754.83 462.38 734.73 462.38 734.73 237.81 714.64 237.81 714.64 462.38 694.55 462.38 694.55 237.81 674.46 237.81 674.46 462.38 654.37 462.38 654.37 217.72 754.83 217.72 754.83 462.38"/></svg>