<?xml version="1.0" encoding="utf-8"?>
<!-- Generator: Adobe Illustrator 23.0.3, SVG Export Plug-In . SVG Version: 6.00 Build 0)  -->
<svg version="1.1" id="Layer_1" xmlns="http://www.w3.org/2000/svg" xmlns:xlink="http://www.w3.org/1999/xlink" x="0px" y="0px"
	 viewBox="0 0 612 792" style="enable-background:new 0 0 612 792;" xml:space="preserve">
<g>
	<polygon points="518.61,16.27 595.73,16.27 595.73,93.39 580.3,93.39 580.3,31.7 564.88,31.7 564.88,93.39 549.46,93.39 
		549.46,31.7 534.03,31.7 534.03,93.39 518.61,93.39 	"/>
	<polygon points="595.73,177.62 595.73,158.6 566.43,139.06 595.73,119.53 595.73,100.5 550.65,130.55 518.61,130.55 518.61,147.57 
		550.65,147.57 	"/>
	<path d="M518.61,676.92v16.62l77.12-30.85v-15.42l-77.12-30.85v16.62l15.42,6.17v31.53L518.61,676.92z M549.46,645.38l23.99,9.6
		l-23.99,9.6V645.38z"/>
	<polygon points="595.73,698.61 518.61,698.61 518.61,714.03 580.3,714.03 580.3,729.46 518.61,729.46 518.61,744.88 580.3,744.88 
		580.3,760.3 518.61,760.3 518.61,775.73 595.73,775.73 	"/>
	<path d="M258.99,775.73"/>
	<polygon points="434.38,775.73 453.4,775.73 472.94,746.43 492.47,775.73 511.5,775.73 481.45,730.65 481.45,698.61 464.43,698.61 
		464.43,730.65 	"/>
	<path d="M115.08,698.61H98.46l30.85,77.12h15.42l30.85-77.12h-16.62l-6.17,15.42h-31.53L115.08,698.61z M146.62,729.46l-9.6,23.99
		l-9.6-23.99H146.62z"/>
	<polygon points="93.39,775.73 93.39,698.61 77.97,698.61 77.97,760.3 62.54,760.3 62.54,698.61 47.12,698.61 47.12,760.3 
		31.7,760.3 31.7,698.61 16.27,698.61 16.27,775.73 	"/>
	<polygon points="181.87,698.61 181.87,714.03 243.56,714.03 243.56,729.46 181.87,729.46 181.87,744.88 243.56,744.88 
		243.56,760.3 181.87,760.3 181.87,775.73 258.99,775.73 258.99,698.61 	"/>
	<path d="M342.83,698.61h-53.98l0,0c-12.78,0-23.14,10.36-23.14,23.14c0,6.92,3.04,13.12,7.85,17.36c-2.73,3.8-4.34,8.45-4.34,13.49
		c0,12.56,10,22.77,22.47,23.12v0.02h51.13V698.61z M292.36,760.3c-4.26,0-7.71-3.45-7.71-7.71c0-4.26,3.45-7.71,7.71-7.71h35.05
		v15.42H292.36z M327.4,714.03v15.42h-38.56v0c-4.26,0-7.71-3.45-7.71-7.71c0-4.26,3.45-7.71,7.71-7.71H327.4z"/>
	<polygon points="351.35,775.73 351.35,760.3 413.04,760.3 413.04,744.88 351.35,744.88 351.35,729.46 413.04,729.46 413.04,714.03 
		351.35,714.03 351.35,698.61 428.47,698.61 428.47,775.73 	"/>
	<path d="M16.27,322.31"/>
	<polygon points="16.27,614.38 16.27,633.4 45.57,652.94 16.27,672.47 16.27,691.5 61.35,661.45 93.39,661.45 93.39,644.43 
		61.35,644.43 	"/>
	<path d="M93.39,115.08V98.46l-77.12,30.85v15.42l77.12,30.85v-16.62l-15.42-6.17v-31.53L93.39,115.08z M62.54,146.62l-23.99-9.6
		l23.99-9.6V146.62z"/>
	<polygon points="16.27,93.39 93.39,93.39 93.39,77.97 31.7,77.97 31.7,62.54 93.39,62.54 93.39,47.12 31.7,47.12 31.7,31.7 
		93.39,31.7 93.39,16.27 16.27,16.27 	"/>
	<polygon points="93.39,181.87 77.97,181.87 77.97,306.89 62.54,306.89 62.54,181.87 47.12,181.87 47.12,306.89 31.7,306.89 
		31.7,181.87 16.27,181.87 16.27,322.31 93.39,322.31 	"/>
	<path d="M93.39,463.7V352.17h0c0-12.78-10.36-23.14-23.14-23.14c-6.92,0-13.12,3.04-17.36,7.85c-3.8-2.73-8.45-4.34-13.49-4.34
		c-12.56,0-22.77,10-23.12,22.47h-0.02V463.7H93.39z M31.7,355.68c0-4.26,3.45-7.71,7.71-7.71s7.71,3.45,7.71,7.71v92.59H31.7
		V355.68z M77.97,448.27H62.54v-96.1h0c0-4.26,3.45-7.71,7.71-7.71c4.26,0,7.71,3.45,7.71,7.71V448.27z"/>
	<polygon points="16.27,472.22 31.7,472.22 31.7,593.04 47.12,593.04 47.12,472.22 62.54,472.22 62.54,593.04 77.97,593.04 
		77.97,472.22 93.39,472.22 93.39,608.47 16.27,608.47 	"/>
	<path d="M353.01,16.27"/>
	<polygon points="177.62,16.27 158.6,16.27 139.06,45.57 119.53,16.27 100.5,16.27 130.55,61.35 130.55,93.39 147.57,93.39 
		147.57,61.35 	"/>
	<path d="M496.92,93.39h16.62l-30.85-77.12h-15.42l-30.85,77.12h16.62l6.17-15.42h31.53L496.92,93.39z M465.38,62.54l9.6-23.99
		l9.6,23.99H465.38z"/>
	<polygon points="430.13,93.39 430.13,77.97 368.44,77.97 368.44,62.54 430.13,62.54 430.13,47.12 368.44,47.12 368.44,31.7 
		430.13,31.7 430.13,16.27 353.01,16.27 353.01,93.39 	"/>
	<path d="M269.17,93.39h53.98v0c12.78,0,23.14-10.36,23.14-23.14c0-6.92-3.04-13.12-7.85-17.36c2.73-3.8,4.34-8.45,4.34-13.49
		c0-12.56-10-22.77-22.47-23.12v-0.02h-51.13V93.39z M319.64,31.7c4.26,0,7.71,3.45,7.71,7.71s-3.45,7.71-7.71,7.71H284.6V31.7
		H319.64z M284.6,77.97V62.54h38.56v0c4.26,0,7.71,3.45,7.71,7.71c0,4.26-3.45,7.71-7.71,7.71H284.6z"/>
	<polygon points="260.65,16.27 260.65,31.7 198.96,31.7 198.96,47.12 260.65,47.12 260.65,62.54 198.96,62.54 198.96,77.97 
		260.65,77.97 260.65,93.39 183.53,93.39 183.53,16.27 	"/>
	<path d="M595.73,469.02"/>
	<polygon points="518.61,609.47 534.03,609.47 534.03,484.45 549.46,484.45 549.46,609.47 564.88,609.47 564.88,484.45 
		580.3,484.45 580.3,609.47 595.73,609.47 595.73,469.02 518.61,469.02 	"/>
	<path d="M518.61,327.64v111.53l0,0c0,12.78,10.36,23.14,23.14,23.14c6.92,0,13.12-3.04,17.36-7.85c3.8,2.73,8.45,4.34,13.49,4.34
		c12.56,0,22.77-10,23.12-22.47h0.02V327.64H518.61z M580.3,435.66c0,4.26-3.45,7.71-7.71,7.71c-4.26,0-7.71-3.45-7.71-7.71v-92.59
		h15.42V435.66z M534.03,343.06h15.42v96.1h0c0,4.26-3.45,7.71-7.71,7.71c-4.26,0-7.71-3.45-7.71-7.71V343.06z"/>
	<polygon points="595.73,319.12 580.3,319.12 580.3,198.29 564.88,198.29 564.88,319.12 549.46,319.12 549.46,198.29 534.03,198.29 
		534.03,319.12 518.61,319.12 518.61,182.87 595.73,182.87 	"/>
</g>
</svg>
