<?xml version="1.0" encoding="utf-8"?>
<!-- Generator: Adobe Illustrator 23.0.3, SVG Export Plug-In . SVG Version: 6.00 Build 0)  -->
<svg version="1.1" id="Layer_1" xmlns="http://www.w3.org/2000/svg" xmlns:xlink="http://www.w3.org/1999/xlink" x="0px" y="0px"
	 viewBox="0 0 750 1334" style="enable-background:new 0 0 750 1334;" xml:space="preserve">
<g>
	<polygon points="636.24,18.99 731,18.99 731,113.75 712.05,113.75 712.05,37.94 693.1,37.94 693.1,113.75 674.15,113.75 
		674.15,37.94 655.19,37.94 655.19,113.75 636.24,113.75 	"/>
	<polygon points="731,217.24 731,193.87 695,169.86 731,145.86 731,122.48 675.61,159.41 636.24,159.41 636.24,180.32 
		675.61,180.32 	"/>
	<path d="M636.24,1194.18v20.43l94.76-37.9v-18.95l-94.76-37.9v20.43l18.95,7.58v38.74L636.24,1194.18z M674.15,1155.44l29.48,11.79
		l-29.48,11.79V1155.44z"/>
	<polygon points="731,1220.84 636.24,1220.84 636.24,1239.79 712.05,1239.79 712.05,1258.74 636.24,1258.74 636.24,1277.69 
		712.05,1277.69 712.05,1296.65 636.24,1296.65 636.24,1315.6 731,1315.6 	"/>
	<path d="M317.23,1315.6"/>
	<polygon points="532.75,1315.6 556.12,1315.6 580.12,1279.59 604.13,1315.6 627.5,1315.6 590.58,1260.21 590.58,1220.84 
		569.67,1220.84 569.67,1260.21 	"/>
	<path d="M140.41,1220.84h-20.43l37.9,94.76h18.95l37.9-94.76h-20.43l-7.58,18.95h-38.74L140.41,1220.84z M179.16,1258.74
		l-11.79,29.48l-11.79-29.48H179.16z"/>
	<polygon points="113.76,1315.6 113.76,1220.84 94.81,1220.84 94.81,1296.65 75.85,1296.65 75.85,1220.84 56.9,1220.84 
		56.9,1296.65 37.95,1296.65 37.95,1220.84 19,1220.84 19,1315.6 	"/>
	<polygon points="222.48,1220.84 222.48,1239.79 298.28,1239.79 298.28,1258.74 222.48,1258.74 222.48,1277.69 298.28,1277.69 
		298.28,1296.65 222.48,1296.65 222.48,1315.6 317.23,1315.6 317.23,1220.84 	"/>
	<path d="M420.25,1220.84h-66.33l0,0c-15.7,0-28.43,12.73-28.43,28.43c0,8.5,3.74,16.12,9.65,21.33
		c-3.35,4.67-5.34,10.38-5.34,16.57c0,15.43,12.29,27.98,27.62,28.41v0.02h62.83V1220.84z M358.23,1296.65
		c-5.23,0-9.48-4.24-9.48-9.48s4.24-9.48,9.48-9.48h43.07v18.95H358.23z M401.3,1239.79v18.95h-47.38l0,0
		c-5.23,0-9.48-4.24-9.48-9.48s4.24-9.48,9.48-9.48H401.3z"/>
	<polygon points="430.72,1315.6 430.72,1296.65 506.53,1296.65 506.53,1277.69 430.72,1277.69 430.72,1258.74 506.53,1258.74 
		506.53,1239.79 430.72,1239.79 430.72,1220.84 525.48,1220.84 525.48,1315.6 	"/>
	<path d="M19,509.08"/>
	<polygon points="19,1117.34 19,1140.72 55,1164.72 19,1188.72 19,1212.1 74.39,1175.18 113.76,1175.18 113.76,1154.27 
		74.39,1154.27 	"/>
	<path d="M113.76,140.4v-20.43L19,157.88v18.95l94.76,37.9v-20.43l-18.95-7.58v-38.74L113.76,140.4z M75.85,179.15l-29.48-11.79
		l29.48-11.79V179.15z"/>
	<polygon points="19,113.75 113.76,113.75 113.76,94.79 37.95,94.79 37.95,75.84 113.76,75.84 113.76,56.89 37.95,56.89 
		37.95,37.94 113.76,37.94 113.76,18.99 19,18.99 	"/>
	<polygon points="113.76,222.46 94.81,222.46 94.81,490.13 75.85,490.13 75.85,222.46 56.9,222.46 56.9,490.13 37.95,490.13 
		37.95,222.46 19,222.46 19,509.08 113.76,509.08 	"/>
	<path d="M113.76,810.7V545.76h0c0-15.7-12.73-28.43-28.43-28.43c-8.5,0-16.12,3.74-21.33,9.65c-4.67-3.35-10.38-5.34-16.57-5.34
		c-15.43,0-27.98,12.29-28.41,27.62H19V810.7H113.76z M37.95,550.08c0-5.23,4.24-9.48,9.48-9.48s9.48,4.24,9.48,9.48v241.67H37.95
		V550.08z M94.81,791.75H75.85V545.76h0c0-5.23,4.24-9.48,9.48-9.48c5.23,0,9.48,4.24,9.48,9.48V791.75z"/>
	<polygon points="19,821.17 37.95,821.17 37.95,1091.13 56.9,1091.13 56.9,821.17 75.85,821.17 75.85,1091.13 94.81,1091.13 
		94.81,821.17 113.76,821.17 113.76,1110.08 19,1110.08 	"/>
	<path d="M432.77,18.99"/>
	<polygon points="217.25,18.99 193.88,18.99 169.88,54.99 145.87,18.99 122.5,18.99 159.42,74.37 159.42,113.75 180.33,113.75 
		180.33,74.37 	"/>
	<path d="M609.59,113.75h20.43l-37.9-94.76h-18.95l-37.9,94.76h20.43l7.58-18.95h38.74L609.59,113.75z M570.84,75.84l11.79-29.48
		l11.79,29.48H570.84z"/>
	<polygon points="527.52,113.75 527.52,94.79 451.72,94.79 451.72,75.84 527.52,75.84 527.52,56.89 451.72,56.89 451.72,37.94 
		527.52,37.94 527.52,18.99 432.77,18.99 432.77,113.75 	"/>
	<path d="M329.75,113.75h66.33v0c15.7,0,28.43-12.73,28.43-28.43c0-8.5-3.74-16.12-9.65-21.33c3.35-4.67,5.34-10.38,5.34-16.57
		c0-15.43-12.29-27.98-27.62-28.41v-0.02h-62.83V113.75z M391.77,37.94c5.23,0,9.48,4.24,9.48,9.48s-4.24,9.48-9.48,9.48H348.7
		V37.94H391.77z M348.7,94.79V75.84h47.38v0c5.23,0,9.48,4.24,9.48,9.48s-4.24,9.48-9.48,9.48H348.7z"/>
	<polygon points="319.28,18.99 319.28,37.94 243.47,37.94 243.47,56.89 319.28,56.89 319.28,75.84 243.47,75.84 243.47,94.79 
		319.28,94.79 319.28,113.75 224.52,113.75 224.52,18.99 	"/>
	<path d="M730.76,823.46"/>
	<polygon points="636,1110.08 654.95,1110.08 654.95,842.42 673.9,842.42 673.9,1110.08 692.85,1110.08 692.85,842.42 
		711.81,842.42 711.81,1110.08 730.76,1110.08 730.76,823.46 636,823.46 	"/>
	<path d="M636,521.84v264.94l0,0c0,15.7,12.73,28.43,28.43,28.43c8.5,0,16.12-3.74,21.33-9.65c4.67,3.35,10.38,5.34,16.57,5.34
		c15.43,0,27.98-12.29,28.41-27.62h0.02V521.84H636z M711.81,782.46c0,5.23-4.24,9.48-9.48,9.48s-9.48-4.24-9.48-9.48V540.79h18.95
		V782.46z M654.95,540.79h18.95v245.98h0c0,5.23-4.24,9.48-9.48,9.48s-9.48-4.24-9.48-9.48V540.79z"/>
	<polygon points="730.76,511.37 711.81,511.37 711.81,241.42 692.85,241.42 692.85,511.37 673.9,511.37 673.9,241.42 654.95,241.42 
		654.95,511.37 636,511.37 636,222.46 730.76,222.46 	"/>
</g>
</svg>
