<?xml version="1.0" encoding="utf-8"?>
<!-- Generator: Adobe Illustrator 23.0.3, SVG Export Plug-In . SVG Version: 6.00 Build 0)  -->
<svg version="1.1" id="Layer_1" xmlns="http://www.w3.org/2000/svg" xmlns:xlink="http://www.w3.org/1999/xlink" x="0px" y="0px"
	 viewBox="0 0 1224 792" style="enable-background:new 0 0 1224 792;" xml:space="preserve">
<g>
	<polygon points="1205.41,672.96 1205.41,773.41 1104.96,773.41 1104.96,753.32 1185.32,753.32 1185.32,733.23 1104.96,733.23 
		1104.96,713.14 1185.32,713.14 1185.32,693.05 1104.96,693.05 1104.96,672.96 	"/>
	<polygon points="995.23,773.41 1020.02,773.41 1045.46,735.24 1070.91,773.41 1095.69,773.41 1056.55,714.69 1056.55,672.96 
		1034.38,672.96 1034.38,714.69 	"/>
	<path d="M147.3,672.96h-21.66l40.18,100.46h20.09l40.18-100.46h-21.66l-8.04,20.09h-41.07L147.3,672.96z M188.38,713.14
		l-12.5,31.25l-12.5-31.25H188.38z"/>
	<polygon points="119.04,773.41 119.04,672.96 98.95,672.96 98.95,753.32 78.86,753.32 78.86,672.96 58.77,672.96 58.77,753.32 
		38.68,753.32 38.68,672.96 18.59,672.96 18.59,773.41 	"/>
	<path d="M18.59,334.76"/>
	<polygon points="18.59,563.23 18.59,588.02 56.76,613.46 18.59,638.91 18.59,663.69 77.31,624.55 119.04,624.55 119.04,602.38 
		77.31,602.38 	"/>
	<path d="M119.04,147.3v-21.66L18.59,165.83v20.09l100.46,40.18v-21.66l-20.09-8.04v-41.07L119.04,147.3z M78.86,188.38l-31.25-12.5
		l31.25-12.5V188.38z"/>
	<polygon points="18.59,119.04 119.04,119.04 119.04,98.95 38.68,98.95 38.68,78.86 119.04,78.86 119.04,58.77 38.68,58.77 
		38.68,38.68 119.04,38.68 119.04,18.59 18.59,18.59 	"/>
	<polygon points="119.04,234.3 98.95,234.3 98.95,314.67 78.86,314.67 78.86,234.3 58.77,234.3 58.77,314.67 38.68,314.67 
		38.68,234.3 18.59,234.3 18.59,334.76 119.04,334.76 	"/>
	<path d="M119.04,443.97v-70.32h0c0-16.64-13.49-30.14-30.14-30.14c-9.01,0-17.09,3.96-22.62,10.23
		c-4.95-3.56-11.01-5.66-17.57-5.66c-16.36,0-29.66,13.03-30.12,29.28h-0.02v66.61H119.04z M38.68,378.23
		c0-5.55,4.5-10.05,10.05-10.05s10.05,4.5,10.05,10.05v45.66H38.68V378.23z M98.95,423.88H78.86v-50.23h0
		c0-5.55,4.5-10.05,10.05-10.05c5.55,0,10.05,4.5,10.05,10.05V423.88z"/>
	<polygon points="18.59,455.08 38.68,455.08 38.68,535.44 58.77,535.44 58.77,455.08 78.86,455.08 78.86,535.44 98.95,535.44 
		98.95,455.08 119.04,455.08 119.04,555.53 18.59,555.53 	"/>
	<path d="M746.76,18.59"/>
	<polygon points="228.77,18.59 203.98,18.59 178.54,56.76 153.09,18.59 128.31,18.59 167.45,77.31 167.45,119.04 189.62,119.04 
		189.62,77.31 	"/>
	<path d="M1076.7,119.04h21.66l-40.18-100.46h-20.09l-40.18,100.46h21.66l8.04-20.09h41.07L1076.7,119.04z M1035.62,78.86
		l12.5-31.25l12.5,31.25H1035.62z"/>
	<polygon points="1104.96,18.59 1104.96,119.04 1125.05,119.04 1125.05,38.68 1145.14,38.68 1145.14,119.04 1165.23,119.04 
		1165.23,38.68 1185.32,38.68 1185.32,119.04 1205.41,119.04 1205.41,18.59 	"/>
	<polygon points="989.7,119.04 989.7,98.95 766.86,98.95 766.86,78.86 989.7,78.86 989.7,58.77 766.86,58.77 766.86,38.68 
		989.7,38.68 989.7,18.59 746.76,18.59 746.76,119.04 	"/>
	<path d="M492.48,119.04h215.4v0c16.64,0,30.14-13.49,30.14-30.14c0-9.01-3.96-17.09-10.23-22.62c3.56-4.95,5.66-11.01,5.66-17.57
		c0-16.36-13.03-29.66-29.28-30.12v-0.02H492.48V119.04z M703.3,38.68c5.55,0,10.05,4.5,10.05,10.05s-4.5,10.05-10.05,10.05H512.57
		V38.68H703.3z M512.57,98.95V78.86h195.3v0c5.55,0,10.05,4.5,10.05,10.05c0,5.55-4.5,10.05-10.05,10.05H512.57z"/>
	<polygon points="481.38,18.59 481.38,38.68 256.56,38.68 256.56,58.77 481.38,58.77 481.38,78.86 256.56,78.86 256.56,98.95 
		481.38,98.95 481.38,119.04 236.47,119.04 236.47,18.59 	"/>
	<path d="M1205.41,457.24"/>
	<polygon points="1205.41,228.77 1205.41,203.98 1167.24,178.54 1205.41,153.09 1205.41,128.31 1146.69,167.45 1104.96,167.45 
		1104.96,189.62 1146.69,189.62 	"/>
	<path d="M1104.96,644.7v21.66l100.46-40.18v-20.09l-100.46-40.18v21.66l20.09,8.04v41.07L1104.96,644.7z M1145.14,603.62
		l31.25,12.5l-31.25,12.5V603.62z"/>
	<polygon points="1104.96,557.7 1125.05,557.7 1125.05,477.33 1145.14,477.33 1145.14,557.7 1165.23,557.7 1165.23,477.33 
		1185.32,477.33 1185.32,557.7 1205.41,557.7 1205.41,457.24 1104.96,457.24 	"/>
	<path d="M1104.96,348.03v70.32h0c0,16.64,13.49,30.14,30.14,30.14c9.01,0,17.09-3.96,22.62-10.23c4.95,3.56,11.01,5.66,17.57,5.66
		c16.36,0,29.66-13.03,30.12-29.28h0.02v-66.61H1104.96z M1185.32,413.77c0,5.55-4.5,10.05-10.05,10.05
		c-5.55,0-10.05-4.5-10.05-10.05v-45.66h20.09V413.77z M1125.05,368.12h20.09v50.23l0,0c0,5.55-4.5,10.05-10.05,10.05
		c-5.55,0-10.05-4.5-10.05-10.05V368.12z"/>
	<polygon points="1205.41,336.92 1185.32,336.92 1185.32,256.56 1165.23,256.56 1165.23,336.92 1145.14,336.92 1145.14,256.56 
		1125.05,256.56 1125.05,336.92 1104.96,336.92 1104.96,236.47 1205.41,236.47 	"/>
	<path d="M478.4,773.74"/>
	<polygon points="235.47,673.28 235.47,693.38 458.31,693.38 458.31,713.47 235.47,713.47 235.47,733.56 458.31,733.56 
		458.31,753.65 235.47,753.65 235.47,773.74 478.4,773.74 478.4,673.28 	"/>
	<path d="M732.69,673.28h-215.4v0c-16.64,0-30.14,13.49-30.14,30.14c0,9.01,3.96,17.09,10.23,22.62
		c-3.56,4.95-5.66,11.01-5.66,17.57c0,16.36,13.03,29.66,29.28,30.12v0.02h211.68V673.28z M521.87,753.65
		c-5.55,0-10.05-4.5-10.05-10.05s4.5-10.05,10.05-10.05H712.6v20.09H521.87z M712.6,693.38v20.09h-195.3v0
		c-5.55,0-10.05-4.5-10.05-10.05c0-5.55,4.5-10.05,10.05-10.05H712.6z"/>
	<polygon points="743.79,773.74 743.79,753.65 968.61,753.65 968.61,733.56 743.79,733.56 743.79,713.47 968.61,713.47 
		968.61,693.38 743.79,693.38 743.79,673.28 988.7,673.28 988.7,773.74 	"/>
</g>
</svg>
