<?xml version="1.0" encoding="utf-8"?>
<!-- Generator: Adobe Illustrator 23.0.3, SVG Export Plug-In . SVG Version: 6.00 Build 0)  -->
<svg version="1.1" id="Layer_1" xmlns="http://www.w3.org/2000/svg" xmlns:xlink="http://www.w3.org/1999/xlink" x="0px" y="0px"
	 viewBox="0 0 792 612" style="enable-background:new 0 0 792 612;" xml:space="preserve">
<g>
	<polygon points="775.73,518.61 775.73,595.73 698.61,595.73 698.61,580.3 760.3,580.3 760.3,564.88 698.61,564.88 698.61,549.46 
		760.3,549.46 760.3,534.03 698.61,534.03 698.61,518.61 	"/>
	<polygon points="614.38,595.73 633.4,595.73 652.94,566.43 672.47,595.73 691.5,595.73 661.45,550.65 661.45,518.61 644.43,518.61 
		644.43,550.65 	"/>
	<path d="M115.08,518.61H98.46l30.85,77.12h15.42l30.85-77.12h-16.62l-6.17,15.42h-31.53L115.08,518.61z M146.62,549.46l-9.6,23.99
		l-9.6-23.99H146.62z"/>
	<polygon points="93.39,595.73 93.39,518.61 77.97,518.61 77.97,580.3 62.54,580.3 62.54,518.61 47.12,518.61 47.12,580.3 
		31.7,580.3 31.7,518.61 16.27,518.61 16.27,595.73 	"/>
	<path d="M16.27,258.99"/>
	<polygon points="16.27,434.38 16.27,453.4 45.57,472.94 16.27,492.47 16.27,511.5 61.35,481.45 93.39,481.45 93.39,464.43 
		61.35,464.43 	"/>
	<path d="M93.39,115.08V98.46l-77.12,30.85v15.42l77.12,30.85v-16.62l-15.42-6.17v-31.53L93.39,115.08z M62.54,146.62l-23.99-9.6
		l23.99-9.6V146.62z"/>
	<polygon points="16.27,93.39 93.39,93.39 93.39,77.97 31.7,77.97 31.7,62.54 93.39,62.54 93.39,47.12 31.7,47.12 31.7,31.7 
		93.39,31.7 93.39,16.27 16.27,16.27 	"/>
	<polygon points="93.39,181.87 77.97,181.87 77.97,243.56 62.54,243.56 62.54,181.87 47.12,181.87 47.12,243.56 31.7,243.56 
		31.7,181.87 16.27,181.87 16.27,258.99 93.39,258.99 	"/>
	<path d="M93.39,342.83v-53.98h0c0-12.78-10.36-23.14-23.14-23.14c-6.92,0-13.12,3.04-17.36,7.85c-3.8-2.73-8.45-4.34-13.49-4.34
		c-12.56,0-22.77,10-23.12,22.47h-0.02v51.13H93.39z M31.7,292.36c0-4.26,3.45-7.71,7.71-7.71s7.71,3.45,7.71,7.71v35.05H31.7
		V292.36z M77.97,327.4H62.54v-38.56h0c0-4.26,3.45-7.71,7.71-7.71c4.26,0,7.71,3.45,7.71,7.71V327.4z"/>
	<polygon points="16.27,351.35 31.7,351.35 31.7,413.04 47.12,413.04 47.12,351.35 62.54,351.35 62.54,413.04 77.97,413.04 
		77.97,351.35 93.39,351.35 93.39,428.47 16.27,428.47 	"/>
	<path d="M472.47,16.27"/>
	<polygon points="177.62,16.27 158.6,16.27 139.06,45.57 119.53,16.27 100.5,16.27 130.55,61.35 130.55,93.39 147.57,93.39 
		147.57,61.35 	"/>
	<path d="M676.92,93.39h16.62l-30.85-77.12h-15.42l-30.85,77.12h16.62l6.17-15.42h31.53L676.92,93.39z M645.38,62.54l9.6-23.99
		l9.6,23.99H645.38z"/>
	<polygon points="698.61,16.27 698.61,93.39 714.03,93.39 714.03,31.7 729.46,31.7 729.46,93.39 744.88,93.39 744.88,31.7 
		760.3,31.7 760.3,93.39 775.73,93.39 775.73,16.27 	"/>
	<polygon points="610.13,93.39 610.13,77.97 487.9,77.97 487.9,62.54 610.13,62.54 610.13,47.12 487.9,47.12 487.9,31.7 
		610.13,31.7 610.13,16.27 472.47,16.27 472.47,93.39 	"/>
	<path d="M328.64,93.39h113.98v0c12.78,0,23.14-10.36,23.14-23.14c0-6.92-3.04-13.12-7.85-17.36c2.73-3.8,4.34-8.45,4.34-13.49
		c0-12.56-10-22.77-22.47-23.12v-0.02H328.64V93.39z M439.11,31.7c4.26,0,7.71,3.45,7.71,7.71s-3.45,7.71-7.71,7.71h-95.04V31.7
		H439.11z M344.07,77.97V62.54h98.55v0c4.26,0,7.71,3.45,7.71,7.71c0,4.26-3.45,7.71-7.71,7.71H344.07z"/>
	<polygon points="320.12,16.27 320.12,31.7 198.96,31.7 198.96,47.12 320.12,47.12 320.12,62.54 198.96,62.54 198.96,77.97 
		320.12,77.97 320.12,93.39 183.53,93.39 183.53,16.27 	"/>
	<path d="M775.73,353.01"/>
	<polygon points="775.73,177.62 775.73,158.6 746.43,139.06 775.73,119.53 775.73,100.5 730.65,130.55 698.61,130.55 698.61,147.57 
		730.65,147.57 	"/>
	<path d="M698.61,496.92v16.62l77.12-30.85v-15.42l-77.12-30.85v16.62l15.42,6.17v31.53L698.61,496.92z M729.46,465.38l23.99,9.6
		l-23.99,9.6V465.38z"/>
	<polygon points="698.61,430.13 714.03,430.13 714.03,368.44 729.46,368.44 729.46,430.13 744.88,430.13 744.88,368.44 
		760.3,368.44 760.3,430.13 775.73,430.13 775.73,353.01 698.61,353.01 	"/>
	<path d="M698.61,269.17v53.98l0,0c0,12.78,10.36,23.14,23.14,23.14c6.92,0,13.12-3.04,17.36-7.85c3.8,2.73,8.45,4.34,13.49,4.34
		c12.56,0,22.77-10,23.12-22.47h0.02v-51.13H698.61z M760.3,319.64c0,4.26-3.45,7.71-7.71,7.71c-4.26,0-7.71-3.45-7.71-7.71V284.6
		h15.42V319.64z M714.03,284.6h15.42v38.56h0c0,4.26-3.45,7.71-7.71,7.71c-4.26,0-7.71-3.45-7.71-7.71V284.6z"/>
	<polygon points="775.73,260.65 760.3,260.65 760.3,198.96 744.88,198.96 744.88,260.65 729.46,260.65 729.46,198.96 714.03,198.96 
		714.03,260.65 698.61,260.65 698.61,183.53 775.73,183.53 	"/>
	<polygon points="182.53,518.61 182.53,534.03 304.76,534.03 304.76,549.46 182.53,549.46 182.53,564.88 304.76,564.88 
		304.76,580.3 182.53,580.3 182.53,595.73 320.19,595.73 320.19,518.61 	"/>
	<path d="M464.02,518.61H350.04l0,0c-12.78,0-23.14,10.36-23.14,23.14c0,6.92,3.04,13.12,7.85,17.36c-2.73,3.8-4.34,8.45-4.34,13.49
		c0,12.56,10,22.77,22.47,23.12v0.02h111.13V518.61z M353.56,580.3c-4.26,0-7.71-3.45-7.71-7.71c0-4.26,3.45-7.71,7.71-7.71h95.04
		v15.42H353.56z M448.6,534.03v15.42h-98.55v0c-4.26,0-7.71-3.45-7.71-7.71c0-4.26,3.45-7.71,7.71-7.71H448.6z"/>
	<polygon points="472.54,595.73 472.54,580.3 593.71,580.3 593.71,564.88 472.54,564.88 472.54,549.46 593.71,549.46 593.71,534.03 
		472.54,534.03 472.54,518.61 609.13,518.61 609.13,595.73 	"/>
</g>
</svg>
