<?xml version="1.0" encoding="utf-8"?>
<!-- Generator: Adobe Illustrator 23.0.3, SVG Export Plug-In . SVG Version: 6.00 Build 0)  -->
<svg version="1.1" id="Layer_1" xmlns="http://www.w3.org/2000/svg" xmlns:xlink="http://www.w3.org/1999/xlink" x="0px" y="0px"
	 viewBox="0 0 432 288" style="enable-background:new 0 0 432 288;" xml:space="preserve">
<g>
	<polygon points="424.57,244.18 424.57,280.57 388.18,280.57 388.18,273.29 417.29,273.29 417.29,266.01 388.18,266.01 
		388.18,258.74 417.29,258.74 417.29,251.46 388.18,251.46 388.18,244.18 	"/>
	<polygon points="348.43,280.57 357.41,280.57 366.63,266.74 375.85,280.57 384.82,280.57 370.64,259.3 370.64,244.18 
		362.61,244.18 362.61,259.3 	"/>
	<path d="M54.06,244.18h-7.84l14.56,36.39h7.28l14.56-36.39h-7.84l-2.91,7.28H56.97L54.06,244.18z M68.94,258.74l-4.53,11.32
		l-4.53-11.32H68.94z"/>
	<polygon points="43.82,280.57 43.82,244.18 36.54,244.18 36.54,273.29 29.26,273.29 29.26,244.18 21.99,244.18 21.99,273.29 
		14.71,273.29 14.71,244.18 7.43,244.18 7.43,280.57 	"/>
	<path d="M7.43,121.66"/>
	<polygon points="7.43,204.43 7.43,213.41 21.26,222.63 7.43,231.85 7.43,240.82 28.7,226.64 43.82,226.64 43.82,218.61 
		28.7,218.61 	"/>
	<path d="M43.82,53.76v-7.84L7.43,60.47v7.28L43.82,82.3v-7.84l-7.28-2.91V56.67L43.82,53.76z M29.26,68.64l-11.32-4.53l11.32-4.53
		V68.64z"/>
	<polygon points="7.43,43.52 43.82,43.52 43.82,36.24 14.71,36.24 14.71,28.96 43.82,28.96 43.82,21.68 14.71,21.68 14.71,14.41 
		43.82,14.41 43.82,7.13 7.43,7.13 	"/>
	<polygon points="43.82,85.27 36.54,85.27 36.54,114.39 29.26,114.39 29.26,85.27 21.99,85.27 21.99,114.39 14.71,114.39 
		14.71,85.27 7.43,85.27 7.43,121.66 43.82,121.66 	"/>
	<path d="M43.82,161.23v-25.47h0c0-6.03-4.89-10.92-10.92-10.92c-3.26,0-6.19,1.43-8.19,3.71c-1.79-1.29-3.99-2.05-6.36-2.05
		c-5.92,0-10.74,4.72-10.91,10.61H7.43v24.13H43.82z M14.71,137.41c0-2.01,1.63-3.64,3.64-3.64s3.64,1.63,3.64,3.64v16.54h-7.28
		V137.41z M36.54,153.95h-7.28v-18.2h0c0-2.01,1.63-3.64,3.64-3.64s3.64,1.63,3.64,3.64V153.95z"/>
	<polygon points="7.43,165.25 14.71,165.25 14.71,194.36 21.99,194.36 21.99,165.25 29.26,165.25 29.26,194.36 36.54,194.36 
		36.54,165.25 43.82,165.25 43.82,201.64 7.43,201.64 	"/>
	<polygon points="83.57,7.13 74.59,7.13 65.37,20.95 56.15,7.13 47.18,7.13 61.36,28.4 61.36,43.52 69.39,43.52 69.39,28.4 	"/>
	<path d="M377.94,43.52h7.84L371.23,7.13h-7.28l-14.56,36.39h7.84l2.91-7.28h14.88L377.94,43.52z M363.06,28.96l4.53-11.32
		l4.53,11.32H363.06z"/>
	<polygon points="388.18,7.13 388.18,43.52 395.46,43.52 395.46,14.41 402.74,14.41 402.74,43.52 410.01,43.52 410.01,14.41 
		417.29,14.41 417.29,43.52 424.57,43.52 424.57,7.13 	"/>
	<path d="M424.57,166.03"/>
	<polygon points="424.57,83.27 424.57,74.29 410.74,65.07 424.57,55.85 424.57,46.88 403.3,61.06 388.18,61.06 388.18,69.09 
		403.3,69.09 	"/>
	<path d="M388.18,233.94v7.84l36.39-14.56v-7.28l-36.39-14.56v7.84l7.28,2.91v14.88L388.18,233.94z M402.74,219.06l11.32,4.53
		l-11.32,4.53V219.06z"/>
	<polygon points="388.18,202.43 395.46,202.43 395.46,173.31 402.74,173.31 402.74,202.43 410.01,202.43 410.01,173.31 
		417.29,173.31 417.29,202.43 424.57,202.43 424.57,166.03 388.18,166.03 	"/>
	<path d="M388.18,126.47v25.47h0c0,6.03,4.89,10.92,10.92,10.92c3.26,0,6.19-1.43,8.19-3.71c1.79,1.29,3.99,2.05,6.36,2.05
		c5.92,0,10.74-4.72,10.91-10.61h0.01v-24.13H388.18z M417.29,150.29c0,2.01-1.63,3.64-3.64,3.64c-2.01,0-3.64-1.63-3.64-3.64
		v-16.54h7.28V150.29z M395.46,133.75h7.28v18.2h0c0,2.01-1.63,3.64-3.64,3.64c-2.01,0-3.64-1.63-3.64-3.64V133.75z"/>
	<polygon points="424.57,122.45 417.29,122.45 417.29,93.33 410.01,93.33 410.01,122.45 402.74,122.45 402.74,93.33 395.46,93.33 
		395.46,122.45 388.18,122.45 388.18,86.06 424.57,86.06 	"/>
	<path d="M170.15,280.57"/>
	<polygon points="85.57,244.18 85.57,251.46 162.87,251.46 162.87,258.74 85.57,258.74 85.57,266.01 162.87,266.01 162.87,273.29 
		85.57,273.29 85.57,280.57 170.15,280.57 170.15,244.18 	"/>
	<path d="M256.42,244.18h-72.18v0c-6.03,0-10.92,4.89-10.92,10.92c0,3.26,1.43,6.19,3.71,8.19c-1.29,1.79-2.05,3.99-2.05,6.36
		c0,5.92,4.72,10.74,10.61,10.91v0.01h70.84V244.18z M185.9,273.29c-2.01,0-3.64-1.63-3.64-3.64c0-2.01,1.63-3.64,3.64-3.64h63.25
		v7.28H185.9z M249.14,251.46v7.28h-64.9v0c-2.01,0-3.64-1.63-3.64-3.64s1.63-3.64,3.64-3.64H249.14z"/>
	<polygon points="260.44,280.57 260.44,273.29 338.36,273.29 338.36,266.01 260.44,266.01 260.44,258.74 338.36,258.74 
		338.36,251.46 260.44,251.46 260.44,244.18 345.64,244.18 345.64,280.57 	"/>
	<polygon points="345.64,43.52 345.64,36.24 268.34,36.24 268.34,28.96 345.64,28.96 345.64,21.68 268.34,21.68 268.34,14.41 
		345.64,14.41 345.64,7.13 261.06,7.13 261.06,43.52 	"/>
	<path d="M174.79,43.52h72.18v0c6.03,0,10.92-4.89,10.92-10.92c0-3.26-1.43-6.19-3.71-8.19c1.29-1.79,2.05-3.99,2.05-6.36
		c0-5.92-4.72-10.74-10.61-10.91V7.13h-70.84V43.52z M245.32,14.41c2.01,0,3.64,1.63,3.64,3.64s-1.63,3.64-3.64,3.64h-63.25v-7.28
		H245.32z M182.07,36.24v-7.28h64.9v0c2.01,0,3.64,1.63,3.64,3.64s-1.63,3.64-3.64,3.64H182.07z"/>
	<polygon points="170.77,7.13 170.77,14.41 92.85,14.41 92.85,21.68 170.77,21.68 170.77,28.96 92.85,28.96 92.85,36.24 
		170.77,36.24 170.77,43.52 85.57,43.52 85.57,7.13 	"/>
</g>
</svg>
